# xmcd CD database file
#
# Track frame offsets:
#	150
#	18035
#	39260
#	61561
#	79307
#	100400
#	117946
#	137821
#	152971
#	171621
#	191776
#	211741
#	227101
#
# Disc length: 3274 seconds
#
# Revision: 0
# Processed by: cddbd v1.4PL0 Copyright (c) Steve Scherf et al.
# Submitted via: CDex 1.50Beta7
#
DISCID=ab0cc80d
DTITLE=Jayne - O Melhor de...
DYEAR=2002
DGENRE=Country
TTITLE0=Jayne - A Solidão
TTITLE1=Jayne - Mississipi
TTITLE2=Jayne - O Mais Importante é o Verdadeiro Amor
TTITLE3=Jayne - Sem Você
TTITLE4=Jayne - O Menino da Gaita
TTITLE5=Jayne - Bem Te Vi
TTITLE6=Jayne - Um Sonho a Mais
TTITLE7=Jayne - Último Trem
TTITLE8=Jayne - Dia de Formatura
TTITLE9=Jayne - Eu Te Quero Demais
TTITLE10=Jayne - Esses Meninos Cowboys
TTITLE11=Jayne - Preciso Dizer Adeus
TTITLE12=Jayne - Estranho Amor
EXTD=YEAR: 2002
EXTT0=
EXTT1=
EXTT2=
EXTT3=
EXTT4=
EXTT5=
EXTT6=
EXTT7=
EXTT8=
EXTT9=
EXTT10=
EXTT11=
EXTT12=
PLAYORDER=
